<?xml version="1.0" standalone="no"?><!DOCTYPE svg PUBLIC "-//W3C//DTD SVG 1.1//EN" "http://www.w3.org/Graphics/SVG/1.1/DTD/svg11.dtd"><svg t="1533297954674" class="icon" style="" viewBox="0 0 1024 1024" version="1.1" xmlns="http://www.w3.org/2000/svg" p-id="1879" xmlns:xlink="http://www.w3.org/1999/xlink" width="500" height="500"><defs><style type="text/css"></style></defs><path d="M256.138932 767.866935c0 25.613627 17.07504 42.688666 42.688666 42.688666l42.688666 0 0 149.410866c0 34.151146 29.882387 64.033533 64.033533 64.033533s64.033533-29.882387 64.033533-64.033533l0-149.410866 85.377333 0 0 149.410866c0 34.151146 29.882387 64.033533 64.033533 64.033533s64.033533-29.882387 64.033533-64.033533l0-149.410866 42.688666 0c25.613627 0 42.688666-17.076107 42.688666-42.688666L768.405063 340.978137 256.138932 340.978137 256.138932 767.866935zM149.416733 340.978137c-34.151146 0-64.033533 29.882387-64.033533 64.033533l0 298.822799c0 34.151146 29.882387 64.033533 64.033533 64.033533s64.033533-29.882387 64.033533-64.033533L213.450266 405.01167C213.449199 370.860523 183.567879 340.978137 149.416733 340.978137zM875.127262 340.978137c-34.151146 0-64.033533 29.882387-64.033533 64.033533l0 298.822799c0 34.151146 29.882387 64.033533 64.033533 64.033533s64.033533-29.882387 64.033533-64.033533L939.160795 405.01167C939.160795 370.860523 909.278409 340.978137 875.127262 340.978137zM661.682863 93.382591l55.496013-55.496013c8.53752-8.53752 8.53752-21.344867 0-29.882387s-21.344867-8.53752-29.882387 0l-64.033533 64.033533c-29.882387-21.344867-68.302293-29.882387-110.990959-29.882387s-81.108573 8.53752-115.259719 25.613627l-59.764773-64.033533c-8.53752-4.26876-25.613627-4.26876-34.151146 0-4.26876 8.53752-4.26876 25.613627 0 34.151146l55.496013 55.496013C298.827598 140.340018 256.138932 212.911071 256.138932 298.28947L768.405063 298.28947C768.405063 212.911071 725.716396 136.071258 661.682863 93.382591zM426.893598 212.911071 384.204931 212.911071l0-42.688666 42.688666 0L426.893598 212.911071zM640.339063 212.911071l-42.688666 0 0-42.688666 42.688666 0L640.339063 212.911071z" p-id="1880"></path></svg>