<svg t="1589636497544" class="icon" viewBox="0 0 1024 1024" version="1.1" xmlns="http://www.w3.org/2000/svg" p-id="22428" width="200" height="200"><path d="M204.325 314.298l-1.582 1.907h11.3c14.245 0 25.834-11.59 25.834-25.896 0-1.385-0.323-2.515-0.537-3.263l-0.072-0.256V169.33c0-30.472 24.789-55.262 55.258-55.262h430.09c30.474 0 55.266 24.791 55.266 55.262V296.93h1.973c3.029 10.974 13.138 19.001 24.862 19.001 14.06 0 25.624-11.436 25.78-25.564 0-1.673-0.39-3.07-0.677-4.091-0.052-0.186-0.106-0.373-0.157-0.563V169.331c0-59.025-48.019-107.044-107.042-107.044h-430.09c-59.024 0-107.045 48.02-107.045 107.044V296.93h1.674c2.042 7.923 7.751 14.333 15.165 17.368z m636.763 40.655v-0.538l-6.706 0.53a8.09 8.09 0 0 0-1.388-0.12h-84.063c-13.463 0-24.417 10.952-24.42 24.476v269.096c0 13.496 10.98 24.477 24.476 24.477 13.493 0 24.47-10.98 24.47-24.477V555.99h59.537c0.513 0 0.983-0.047 1.406-0.119l1.303 0.103 0.391 0.016c55.46 0 100.58-45.12 100.58-100.578 0-53.786-42.439-97.846-95.586-100.46z m-4.672 48.837c27.858 1.121 49.609 23.706 49.609 51.622 0 27.93-21.75 50.526-49.59 51.62l-5.968-0.998v1.01h-57.012V403.775h57.012v0.998l5.949-0.983z m-106.91-24.515v0.025h-4.243l4.243-0.025zM533.67 354.997a8.349 8.349 0 0 0-1.383-0.117h-84.062c-13.464 0-24.417 10.953-24.42 24.475v269.092c0 13.496 10.976 24.477 24.468 24.477 13.497 0 24.476-10.98 24.476-24.477V555.99h59.538a8.61 8.61 0 0 0 1.428-0.121l6.61 0.566v-0.572c53.135-2.612 95.564-46.66 95.564-100.43 0-55.444-45.111-100.553-100.558-100.553l-1.66 0.117z m2.066 48.83c28.272 0.217 51.204 23.284 51.204 51.607s-22.928 51.39-51.197 51.609l-6.029-1.012v1.014h-56.96v-103.27h56.96v1.048l6.022-0.995zM428.8 379.33v0.025h-4.253l4.253-0.025z m388.324 336.526l2.262-2.262-12.787 0.023c-11.92 0.02-22.017 8.188-24.844 19.334h-1.87v121.597c0 30.471-24.79 55.262-55.263 55.262H294.53c-30.471 0-55.263-24.79-55.263-55.262V743.042l0.07-0.247c0.212-0.738 0.53-1.843 0.543-3.201 0.005-0.217 0.01-0.467 0.01-0.72 0-14.205-11.555-25.763-25.76-25.763-12.243 0-22.433 8.382-25.09 19.84h-1.555v121.597c0 59.023 48.018 107.044 107.04 107.044h430.09c59.026 0 107.047-48.02 107.047-107.044V744.199l0.124-0.435c0.3-1.064 0.708-2.52 0.708-4.25-0.001-10.533-6.323-19.618-15.372-23.658z m-490.93-58.095l1.98 4.467 0.482-0.201c4.553 6.355 11.931 10.267 19.876 10.267 3.512 0 6.91-0.736 10.102-2.182l-0.003-0.005c5.891-2.663 10.404-7.457 12.721-13.515 2.342-6.124 2.152-12.783-0.518-18.719l-118.301-268.53c-0.758-1.71-1.803-2.993-2.642-4.023-0.187-0.23-0.373-0.457-0.551-0.687l-0.102-0.128c-0.099-0.127-0.176-0.265-0.26-0.399-0.283-0.454-0.673-1.076-1.245-1.708l-0.247-0.254a23.839 23.839 0 0 0-5.547-3.972 7.759 7.759 0 0 0-1.665-1.142l-0.654-0.327-0.548-0.095c-1.728-0.633-3.414-0.895-4.92-1.128l-0.442-0.069c-0.226-0.036-0.447-0.09-0.667-0.14-0.738-0.167-1.748-0.397-2.926-0.397-1.124 0-2.062 0.22-2.748 0.377-0.216 0.05-0.484 0.113-0.588 0.124l-0.138 0.018c-1.712 0.226-3.639 0.479-5.59 1.237l-0.537 0.136-0.42 0.193c-0.975 0.448-1.651 1.019-2.099 1.397-0.056 0.046-0.11 0.095-0.168 0.14l-0.023 0.014c-1.578 0.935-3.367 1.994-4.969 3.59-1.042 1.036-1.701 2.11-2.23 2.974-0.153 0.25-0.306 0.5-0.502 0.79a8.28 8.28 0 0 1-0.452 0.561c-0.558 0.66-1.324 1.562-1.906 2.87L88.624 638.416a23.939 23.939 0 0 0-2.13 9.977c0 13.5 10.98 24.481 24.479 24.481 9.58 0 18.334-5.638 22.297-14.365l0.125-0.303 31.234-70.61h130.589l30.975 70.166z m-52.495-119.06h-87.419l43.777-98.898 43.642 98.898z" p-id="22429"></path></svg>
