<?xml version="1.0" standalone="no"?><!DOCTYPE svg PUBLIC "-//W3C//DTD SVG 1.1//EN" "http://www.w3.org/Graphics/SVG/1.1/DTD/svg11.dtd"><svg t="1560683129498" class="icon" style="" viewBox="0 0 1024 1024" version="1.1" xmlns="http://www.w3.org/2000/svg" p-id="1994" xmlns:xlink="http://www.w3.org/1999/xlink" width="200" height="200"><defs><style type="text/css"></style></defs><path d="M502.647516 415.492084l0 85.939251 24.592418 0c33.344949 0 50.001413-14.500589 50.001413-43.484813 0-28.312691-16.485048-42.453497-49.486226-42.453497l-25.107605 0zM833.388274 304.007271l0-240.005651c0-35.359548-28.656463-64.001884-64.001884-64.001884l-512.019779 0c-35.343537 0-64.001884 28.641394-64.001884 64.001884l0 240.005651-119.386861 0 0 400.008477 119.386861 0 0 256.005651c0 35.344478 28.657405 64.001884 64.001884 64.001884l512.019779 0c35.344478 0 64.001884-28.656463 64.001884-64.001884l0-256.005651 118.225571 0 0-400.008477-118.225571 0zM769.388274 80.00162l0 224.005651-512.012244 0-0.006593-224.005651 512.020721 0zM636.899458 455.712475c0 27.265364-10.000471 49.126442-30.000471 65.564398-20.000942 16.453968-45.002119 24.330586-75.031787 23.6421l-29.218743 0 0 92.813751-56.720509 0 0-266.241582 91.626089 0c66.218978 0 99.343537 28.079115 99.343537 84.221333zM226.280198 576.716478l-19.593125 61.01813-61.540852 0 97.455145-266.24064 66.696492 0 95.564869 266.24064-61.876148 0-19.936897-61.01813-96.767601 0zM513.382623 992.02234c-17.671768 0-32.016953-14.329174-32.016953-32.000942s14.345185-32.000942 32.016953-32.000942 32.000942 14.329174 32.000942 32.000942-14.329174 32.000942-32.000942 32.000942zM769.388274 896.020457l-512.020721 0 0.006593-192.003767 512.011302 0 0 192.003767zM830.857547 521.276873c-19.984931 16.453968-45.002119 24.330586-75.01766 23.6421l-29.218743 0 0 92.813751-56.719567 0 0-266.241582 91.595008 0c66.251943 0 99.348246 28.078173 99.348246 84.221333-0.000942 27.265364-9.986343 49.126442-29.988227 65.564398zM751.714622 415.492084l-25.09442 0 0 85.939251 24.562279 0c33.344949 0 50.033435-14.500589 50.033435-43.484813 0.000942-28.312691-16.50106-42.454438-49.501295-42.454438zM275.267247 417.384243l-1.562515 0c-0.687544 7.780551-2.218036 15.297386-4.625383 22.5166l-30.429951 92.98705 70.995055 0-30.250059-92.298564c-1.954321-5.845067-3.328467-13.58041-4.126207-23.204144z" p-id="1995"></path></svg>