<?xml version="1.0" standalone="no"?><!DOCTYPE svg PUBLIC "-//W3C//DTD SVG 1.1//EN" "http://www.w3.org/Graphics/SVG/1.1/DTD/svg11.dtd"><svg t="1588475847621" class="icon" viewBox="0 0 1024 1024" version="1.1" xmlns="http://www.w3.org/2000/svg" p-id="3394" xmlns:xlink="http://www.w3.org/1999/xlink" width="200" height="200"><defs><style type="text/css"></style></defs><path d="M512 85.333333C276.48 85.333333 85.333333 276.48 85.333333 512s191.146667 426.666667 426.666667 426.666667 426.666667-191.146667 426.666667-426.666667S747.52 85.333333 512 85.333333zM469.333333 850.346667C300.8 829.44 170.666667 686.08 170.666667 512c0-26.453333 3.413333-51.626667 8.96-76.373333L384 640l0 42.666667c0 46.933333 38.4 85.333333 85.333333 85.333333L469.333333 850.346667zM763.733333 741.973333C752.64 707.413333 721.066667 682.666667 682.666667 682.666667l-42.666667 0 0-128c0-23.466667-19.2-42.666667-42.666667-42.666667L341.333333 512l0-85.333333 85.333333 0c23.466667 0 42.666667-19.2 42.666667-42.666667L469.333333 298.666667l85.333333 0c46.933333 0 85.333333-38.4 85.333333-85.333333L640 195.84c125.013333 50.773333 213.333333 173.226667 213.333333 316.16C853.333333 600.746667 819.2 681.386667 763.733333 741.973333z" p-id="3395"></path></svg>