<?xml version="1.0" standalone="no"?><!DOCTYPE svg PUBLIC "-//W3C//DTD SVG 1.1//EN" "http://www.w3.org/Graphics/SVG/1.1/DTD/svg11.dtd"><svg t="1551946874596" class="icon" style="" viewBox="0 0 1156 1024" version="1.1" xmlns="http://www.w3.org/2000/svg" p-id="1419" xmlns:xlink="http://www.w3.org/1999/xlink" width="54.1875" height="48"><defs><style type="text/css"></style></defs><path d="M379.870968 379.870968m-379.870968 0a379.870968 379.870968 0 1 0 759.741935 0 379.870968 379.870968 0 1 0-759.741935 0Z" fill="#8CF6FB" p-id="1420"></path><path d="M1015.741935 1024h-875.354838C62.76129 1024 0 961.23871 0 883.612903v-578.064516C0 227.922581 62.76129 165.16129 140.387097 165.16129H264.258065V140.387097C264.258065 62.76129 327.019355 0 404.645161 0h346.83871C829.109677 0 891.870968 62.76129 891.870968 140.387097V165.16129h123.870967c77.625806 0 140.387097 62.76129 140.387097 140.387097v578.064516c0 77.625806-62.76129 140.387097-140.387097 140.387097zM1073.548387 305.548387c0-31.380645-26.425806-57.806452-57.806452-57.806452h-165.16129c-23.122581 0-41.290323-18.167742-41.290322-41.290322v-66.064516C809.290323 109.006452 782.864516 82.580645 751.483871 82.580645h-346.83871C373.264516 82.580645 346.83871 109.006452 346.83871 140.387097v66.064516c0 23.122581-18.167742 41.290323-41.290323 41.290322h-165.16129C109.006452 247.741935 82.580645 274.167742 82.580645 305.548387v578.064516C82.580645 914.993548 109.006452 941.419355 140.387097 941.419355h875.354838c31.380645 0 57.806452-26.425806 57.806452-57.806452v-578.064516z" fill="#3C2DCB" p-id="1421"></path><path d="M578.064516 809.290323c-118.916129 0-214.709677-95.793548-214.709677-214.709678s95.793548-214.709677 214.709677-214.709677 214.709677 95.793548 214.709678 214.709677-95.793548 214.709677-214.709678 214.709678z m0-346.83871c-72.670968 0-132.129032 59.458065-132.129032 132.129032s59.458065 132.129032 132.129032 132.129032 132.129032-59.458065 132.129032-132.129032-59.458065-132.129032-132.129032-132.129032z" fill="#D098FF" p-id="1422"></path></svg>