<?xml version="1.0" standalone="no"?><!DOCTYPE svg PUBLIC "-//W3C//DTD SVG 1.1//EN" "http://www.w3.org/Graphics/SVG/1.1/DTD/svg11.dtd"><svg t="1561216642163" class="icon" viewBox="0 0 1024 1024" version="1.1" xmlns="http://www.w3.org/2000/svg" p-id="5927" width="32" height="32" xmlns:xlink="http://www.w3.org/1999/xlink"><defs><style type="text/css"></style></defs><path d="M768 0 256 0C220.8 0 192 28.8 192 64l0 896c0 35.2 28.8 64 64 64l512 0c35.2 0 64-28.8 64-64L832 64C832 28.8 803.2 0 768 0zM656 32C665.6 32 672 38.4 672 48S665.6 64 656 64 640 57.6 640 48 646.4 32 656 32zM464 32l96 0C569.6 32 576 38.4 576 48 576 57.6 569.6 64 560 64l-96 0C454.4 64 448 57.6 448 48 448 38.4 454.4 32 464 32zM512 992c-25.6 0-48-22.4-48-48S486.4 896 512 896s48 22.4 48 48S537.6 992 512 992zM768 832c0 19.2-12.8 32-32 32L288 864c-19.2 0-32-12.8-32-32L256 128c0-19.2 12.8-32 32-32l448 0c19.2 0 32 12.8 32 32L768 832z" p-id="5928"></path></svg>