<?xml version="1.0" standalone="no"?><!DOCTYPE svg PUBLIC "-//W3C//DTD SVG 1.1//EN" "http://www.w3.org/Graphics/SVG/1.1/DTD/svg11.dtd"><svg t="1532933639431" class="icon" style="" viewBox="0 0 1024 1024" version="1.1" xmlns="http://www.w3.org/2000/svg" p-id="6433" xmlns:xlink="http://www.w3.org/1999/xlink" width="200" height="200"><defs><style type="text/css"></style></defs><path d="M470.016 827.392l-1.024-286.208h92.16V488.448H470.016V118.784l89.088 0.512v-45.568H432.128v414.72h-71.68v52.736h71.68v409.088l129.024-1.024V906.24l-91.136 0.512zM971.264 472.064h-0.512l0.512 1.536zM932.864 80.896c-1.024-0.512-1.536-1.024-1.536-1.024-26.624-13.824-52.736-28.16-79.36-41.984-1.536-0.512-3.072-1.024-4.096-1.024h-121.856c-1.536 0-3.584 0.512-5.12 1.024-10.24 5.12-19.968 10.24-30.208 15.872l-49.664 26.624v0.512h291.84z m-137.216-20.992h46.08V50.176l23.552 13.824-23.04 13.312v-9.728h-46.592v-7.68zM737.28 40.448l0.512 9.216h40.96c5.12 0 5.12 0 5.12 5.12v2.56h-46.08l-0.512 9.728-23.04-13.312 23.04-13.312z m192 53.248h-287.744c-9.728 0-19.456 6.656-19.456 16.896v37.376c0 9.728 9.216 17.92 19.456 17.92h16.896v6.144h24.064v-6.144h203.776v6.144h30.208v-6.144h13.312c9.728 0 16.896-7.68 16.896-17.92v-37.376c-0.512-9.728-7.168-16.896-17.408-16.896z m-257.536 58.368h-28.672v-16.384h28.672v16.384z m0-27.136h-28.672v-16.384h28.672v16.384z m36.352 27.136H691.2v-16.896h16.896v16.896z m0-26.624H691.2v-16.896h16.896v16.896z m31.744 26.624h-16.896v-16.896h16.896v16.896z m0-26.624h-16.896v-16.896h16.896v16.896z m31.232 26.624h-16.896v-16.896h16.896v16.896z m0-26.624h-16.896v-16.896h16.896v16.896z m31.744 26.624h-16.896v-16.896h16.896v16.896z m0-26.624h-16.896v-16.896h16.896v16.896z m31.232 26.624h-16.896v-16.896h16.896v16.896z m0-26.624h-16.896v-16.896h16.896v16.896z m31.232 26.624h-16.896v-16.896h16.896v16.896z m0-26.624h-16.896v-16.896h16.896v16.896z m31.744 26.624h-16.896v-16.896h16.896v16.896z m0-26.624h-16.896v-16.896h16.896v16.896z m31.232 26.624H911.36v-16.896h16.896v16.896z m0-26.624H911.36v-16.896h16.896v16.896zM932.864 494.592c-1.024-0.512-1.536-1.024-1.536-1.024-26.624-13.824-52.736-28.16-79.36-41.984-1.536-0.512-3.072-1.024-4.096-1.024h-121.856c-1.536 0-3.584 0.512-5.12 1.024-10.24 5.12-19.968 10.24-30.208 15.872l-49.664 26.624v0.512h291.84z m-137.216-20.992h46.08v-9.728l23.552 13.824-23.04 13.312V481.28h-46.592v-7.68zM737.28 453.632l0.512 9.216h40.96c5.12 0 5.12 0 5.12 5.12v2.56h-46.08l-0.512 9.728-23.04-13.312 23.04-13.312z m192 53.76h-287.744c-9.728 0-19.456 6.656-19.456 16.896v37.376c0 9.728 9.216 17.92 19.456 17.92h16.896v6.144h24.064v-6.144h203.776v6.144h30.208v-6.144h13.312c9.728 0 16.896-7.68 16.896-17.92v-37.376c-0.512-10.24-7.168-16.896-17.408-16.896z m-257.536 57.856h-28.672v-16.384h28.672v16.384z m0-26.624h-28.672V522.24h28.672v16.384z m36.352 26.624H691.2v-16.896h16.896v16.896z m0-26.112H691.2V522.24h16.896v16.896z m31.744 26.112h-16.896v-16.896h16.896v16.896z m0-26.112h-16.896V522.24h16.896v16.896z m31.232 26.112h-16.896v-16.896h16.896v16.896z m0-26.112h-16.896V522.24h16.896v16.896z m31.744 26.112h-16.896v-16.896h16.896v16.896z m0-26.112h-16.896V522.24h16.896v16.896z m31.232 26.112h-16.896v-16.896h16.896v16.896z m0-26.112h-16.896V522.24h16.896v16.896z m31.232 26.112h-16.896v-16.896h16.896v16.896z m0-26.112h-16.896V522.24h16.896v16.896z m31.744 26.112h-16.896v-16.896h16.896v16.896z m0-26.112h-16.896V522.24h16.896v16.896z m31.232 26.112H911.36v-16.896h16.896v16.896z m0-26.112H911.36V522.24h16.896v16.896zM932.864 886.784c-1.024-0.512-1.536-1.024-1.536-1.024-26.624-13.824-52.736-28.16-79.36-41.984-1.536-0.512-3.072-1.024-4.096-1.024h-121.856c-1.536 0-3.584 0.512-5.12 1.024-10.24 5.12-19.968 10.752-30.208 15.872l-49.664 26.624v0.512h291.84z m-137.216-20.992h46.08v-9.728l23.552 13.824-23.04 13.312v-9.728h-46.592v-7.68z m-58.368-19.456l0.512 9.216h40.96c5.12 0 5.12 0 5.12 5.12v2.56h-46.08l-0.512 9.728-23.04-13.312 23.04-13.312z m192 53.248h-287.744c-9.728 0-19.456 6.656-19.456 16.896v37.376c0 9.728 9.216 17.92 19.456 17.92h16.896v6.144h24.064v-6.144h203.776v6.144h30.208v-6.144h13.312c9.728 0 16.896-7.68 16.896-17.92V916.48c-0.512-9.728-7.168-16.896-17.408-16.896z m-257.536 58.368h-28.672v-16.384h28.672v16.384z m0-27.136h-28.672v-16.384h28.672v16.384z m36.352 27.136H691.2v-16.896h16.896v16.896z m0-26.624H691.2v-16.896h16.896v16.896z m31.744 26.624h-16.896v-16.896h16.896v16.896z m0-26.624h-16.896v-16.896h16.896v16.896z m31.232 26.624h-16.896v-16.896h16.896v16.896z m0-26.624h-16.896v-16.896h16.896v16.896z m31.744 26.624h-16.896v-16.896h16.896v16.896z m0-26.624h-16.896v-16.896h16.896v16.896z m31.232 26.624h-16.896v-16.896h16.896v16.896z m0-26.624h-16.896v-16.896h16.896v16.896z m31.232 26.624h-16.896v-16.896h16.896v16.896z m0-26.624h-16.896v-16.896h16.896v16.896z m31.744 26.624h-16.896v-16.896h16.896v16.896z m0-26.624h-16.896v-16.896h16.896v16.896z m31.232 26.624H911.36v-16.896h16.896v16.896z m0-26.624H911.36v-16.896h16.896v16.896zM249.344 771.072h-153.6c-32.768 0-59.904-28.16-59.904-60.928V312.832c0-32.768 26.624-59.904 59.904-59.904h153.6c32.768 0 59.904 26.624 59.904 59.904v396.8c-0.512 33.28-27.136 61.44-59.904 61.44zM179.2 742.4c15.872 0 28.672-12.8 28.672-28.672 0-15.872-12.8-28.672-28.672-28.672-15.872 0-28.672 12.8-28.672 28.672 0 15.872 12.8 28.672 28.672 28.672z m45.056-446.464H134.656c-7.168 0-12.8 6.656-12.8 14.336 0 8.192 5.632 14.336 12.8 14.336h89.6c7.168 0 12.8-6.656 12.8-14.336-0.512-7.68-5.632-14.336-12.8-14.336z m55.808 72.192H64.512v288.256h216.064V368.128h-0.512z" p-id="6434"></path></svg>