<?xml version="1.0" standalone="no"?><!DOCTYPE svg PUBLIC "-//W3C//DTD SVG 1.1//EN" "http://www.w3.org/Graphics/SVG/1.1/DTD/svg11.dtd"><svg t="1532940705492" class="icon" style="" viewBox="0 0 1110 1024" version="1.1" xmlns="http://www.w3.org/2000/svg" p-id="1720" data-spm-anchor-id="a313x.7781069.0.i7" xmlns:xlink="http://www.w3.org/1999/xlink" width="541.9921875" height="500"><defs><style type="text/css"></style></defs><path d="M162.6 133.3c-5.5-8.3-15.5-12.5-30-12.5-7.5 0-14.4 1.9-20.9 5.6-6.4 3.7-11.5 8.6-15.1 14.4-3.6 5.9-5.5 11.8-5.5 17.8 0 3.9 0.7 8.5 2.1 13.8 1.4 5.4 3.1 10.6 5.1 15.7 2 5.1 4 10.3 5.9 15.4L187.8 410c8.3 19.9 14.3 33.2 17.8 40 3.5 6.7 9 13 16.4 18.6 7.4 5.7 17.3 8.5 29.7 8.5 9.6 0 17.8-1.8 24.6-5.5 6.7-3.6 12.4-8.7 17-15.2s8.8-14.4 12.5-23.6c3.7-9.2 6.8-16.8 9.1-22.8L399 201.4c2.4-5.8 4.4-10.9 6.3-15.4 1.8-4.5 3.4-9.3 4.8-14.4s2.1-9.6 2.1-13.5c0-9.8-3.9-18.5-11.7-26-7.8-7.5-17.3-11.2-28.4-11.2-11.8 0-20.5 3.5-26.3 10.4-5.8 7-11.7 18.8-17.7 35.5l-76.4 207.7-70.9-199c-6.7-19.8-12.8-33.9-18.2-42.2zM724.5 464.4c8.8 8.5 17.7 12.7 26.6 12.7 10.7 0 20.3-3.7 28.7-11.1 8.5-7.4 12.7-15.6 12.7-24.6 0-5.1-2.7-16.6-8.2-34.5-5.5-17.9-8.2-35-8.2-51.5 0.2-17.5 0.4-33.5 0.5-47.8 0.1-14.3 0.2-31.8 0.2-52.3 0-32.5-4.5-58.6-13.6-78.3-9.1-19.7-24.7-34.1-46.7-43.2-22-9.1-52.3-13.6-90.8-13.6-34.5 0-63.2 4.7-86.3 14.1-23.1 9.4-40.1 21.4-51 36-10.9 14.6-16.4 29.5-16.4 44.9 0 9.8 3.6 17.9 10.8 24.2 7.2 6.3 15.7 9.5 25.5 9.5 10.9 0 18-2 21.3-5.9 3.3-4 9-12.1 17-24.6 8-12.4 17.7-21.7 28.9-27.9 11.2-6.2 28-9.3 50.2-9.3 25.9 0 43 5.4 51.2 16.2 8.2 10.8 12.9 27.8 14 50.9-18.4 5.4-35.5 9.9-51.2 13.6-15.7 3.7-34.6 7.9-56.7 12.4-22 4.5-35.8 7.4-41.4 8.7-26.5 5.8-47.4 17.1-62.6 34-15.2 16.9-22.8 37.3-22.8 61.3 0 17.8 4.6 34.2 13.8 49.4 9.2 15.2 22.3 27.2 39.3 36.1 17 8.9 36.8 13.3 59.2 13.3 24.6 0 46.8-4.1 66.6-12.4 19.8-8.2 40.3-20.6 61.5-37.1 9.8 16.1 19.1 28.4 27.9 36.8z m-33.7-151c0 30.4-4 52.2-11.9 65.5-6.9 12-17.6 21.8-32.3 29.4-14.7 7.6-30.7 11.4-48 11.4-16.3 0-29.4-4.7-39.5-14-10.1-9.3-15.1-20.6-15.1-33.9 0-12.8 4.3-22.8 12.8-30 8.6-7.2 17.5-12 27-14.4 9.4-2.5 26.4-6.3 50.9-11.6 24.5-5.2 43.2-10.2 56-14.9v12.5zM955.3 283.7c1.7-18.3 4.8-34.1 9.3-47.3 4.5-13.3 10.8-23.3 18.9-30 8.1-6.7 18.6-10.1 31.5-10.1 9.4 0 20.3 2 32.6 5.9 12.3 4 20.1 5.9 23.3 5.9 8.6 0 16.5-3.5 23.9-10.4 7.4-7 11.1-15.8 11.1-26.5 0-15.2-8.7-27.4-26-36.6-17.3-9.2-35.2-13.8-53.6-13.8s-33.1 4.6-44.1 13.8c-11 9.2-21.8 22.8-32.3 40.8-0.6-18-4.2-31.6-10.6-40.8-6.4-9.2-16.9-13.8-31.5-13.8-28.5 0-42.7 19.7-42.7 59.1v244c0 17.5 4.1 30.8 12.2 39.8 8.1 9 18.5 13.5 31.1 13.5 12.8 0 23.4-4.4 31.8-13.3 8.3-8.9 12.5-22.2 12.5-40v-73.2c0-26.4 0.9-48.7 2.6-67z" p-id="1721"></path><path d="M122.5 781h952c19.9 0 36 16.1 36 36s-16.1 36-36 36h-952c-19.9 0-36-16.1-36-36s16.1-36 36-36z" p-id="1722"></path></svg>