<?xml version="1.0" standalone="no"?><!DOCTYPE svg PUBLIC "-//W3C//DTD SVG 1.1//EN" "http://www.w3.org/Graphics/SVG/1.1/DTD/svg11.dtd"><svg t="1533297971455" class="icon" style="" viewBox="0 0 1024 1024" version="1.1" xmlns="http://www.w3.org/2000/svg" p-id="2558" xmlns:xlink="http://www.w3.org/1999/xlink" width="500" height="500"><defs><style type="text/css"></style></defs><path d="M800.798101 544.493199c0 94.65923 57.162401 175.539761 137.82964 208.301496-30.116907 85.530309-75.676194 168.7144-135.995324 221.269682-19.537597 23.718131-46.839042 40.354949-77.851778 45.857896-2.047608 0.725195-4.095217 1.493048-6.185484 2.175584-9.214238 2.730145-18.3005 2.346218-27.216128-0.597219-14.077308-1.15178-26.746885-2.260901-38.520633-3.242047-35.278586-24.230033-77.681143-38.435316-123.325747-38.435316-46.156506 0-88.985648 14.503893-124.477527 39.288486-9.086262 0.767853-18.684427 1.535706-28.837152 2.431535-9.000945 2.986096-18.215183 3.327364-27.557396 0.597219-2.090267-0.682536-4.095217-1.450389-6.185484-2.175584-31.055394-5.502948-58.314181-22.182424-77.809119-45.857896-121.662065-105.835759-183.346268-336.362337-179.080418-459.133524 5.076362-145.764123 132.284034-269.431138 254.841928-270.497601 104.428028-0.895829 128.95667 33.785539 189.105167 33.785539 57.20506 0 92.398329-33.785539 197.295601-33.785539 69.746661 0 140.901053 40.354949 190.256947 101.911176C847.935752 383.926574 800.798101 458.536305 800.798101 544.493199zM505.857175 243.750716c-0.597219-6.740044-0.981146-13.522747-0.981146-20.433425 0-119.102555 90.478696-216.19332 204.504888-223.317291 0.597219 6.740044 0.981146 13.522747 0.981146 20.433425C710.362063 139.53598 619.926026 236.626745 505.857175 243.750716z" p-id="2559"></path></svg>