<?xml version="1.0" standalone="no"?><!DOCTYPE svg PUBLIC "-//W3C//DTD SVG 1.1//EN" "http://www.w3.org/Graphics/SVG/1.1/DTD/svg11.dtd"><svg t="1613439092448" class="icon" viewBox="0 0 1024 1024" version="1.1" xmlns="http://www.w3.org/2000/svg" p-id="2178" xmlns:xlink="http://www.w3.org/1999/xlink" width="200" height="200"><defs><style type="text/css"></style></defs><path d="M509.673 432.873c4.654 4.654 9.309 6.982 13.963 11.636 0 0 9.31 9.31 13.964 11.636 9.31 6.982 13.964 11.637 16.29 13.964 9.31 11.636 23.274 11.636 34.91 4.655s11.636-23.273 4.655-34.91c-4.655-6.981-11.637-11.636-23.273-20.945-2.327-2.327-13.964-11.636-13.964-11.636-4.654-4.655-9.309-6.982-13.963-11.637-25.6-23.272-39.564-41.89-41.891-58.181-4.655-44.219 6.981-60.51 74.472-102.4 58.182-37.237 86.11-100.073 79.128-183.855 0-13.964-11.637-23.273-25.6-23.273-13.964 0-23.273 11.637-23.273 25.6 4.654 67.491-13.964 111.71-55.855 139.637-81.454 51.2-102.4 83.781-97.745 148.945 4.654 32.582 25.6 58.182 58.182 90.764zM861.09 502.69c30.254 0 39.564 9.309 39.564 39.564 0 20.945-18.619 44.218-48.873 69.818-20.946 16.29-48.873 32.582-55.855 34.909-13.963 4.654-20.945 18.618-16.29 30.254 4.654 13.964 18.618 20.946 30.254 16.291 51.2-16.29 134.982-83.782 137.309-151.272 2.327-58.182-30.255-93.091-88.436-90.764-13.964 0-23.273 11.636-23.273 25.6 0 13.964 11.636 25.6 25.6 25.6z" p-id="2179"></path><path d="M558.545 560.873c25.6 0 51.2-2.328 74.473-4.655h9.31C742.4 544.582 816.872 512 816.872 463.128c0-13.964-11.637-25.6-25.6-25.6S768 449.163 768 463.127c0 9.308-23.273 20.945-60.51 32.581 9.31-20.945 11.637-41.89 4.655-62.836-6.981-18.618-16.29-32.582-34.909-53.528-2.327-4.654-2.327-4.654-4.654-6.981-23.273-25.6-27.927-37.237-20.946-58.182 9.31-30.255 60.51-55.855 158.255-72.146 13.964-2.327 23.273-13.963 20.945-27.927s-13.963-23.273-27.927-20.945c-114.036 18.618-181.527 53.527-195.49 107.054-11.637 41.891 0 69.818 32.581 104.727l4.655 4.655c13.963 16.29 20.945 25.6 25.6 34.91 6.981 18.617-4.655 39.563-37.237 62.835C612.073 509.673 588.8 512 563.2 512c-114.036 0-207.127-30.255-207.127-48.873 0-2.327 4.654-6.982 18.618-13.963 16.29-9.31 41.89-18.619 72.145-23.273 13.964-2.327 20.946-16.291 18.619-27.927-2.328-13.964-16.291-23.273-27.928-18.619-83.782 11.637-134.982 39.564-134.982 83.782 0 60.51 114.037 97.746 256 97.746z m356.073 179.2c-13.963 0-25.6 11.636-25.6 25.6 0 11.636-27.927 30.254-83.782 46.545-60.509 16.291-144.29 25.6-235.054 25.6s-174.546-9.309-235.055-27.927c-53.527-16.291-83.782-34.91-83.782-46.546 0-13.963-11.636-25.6-25.6-25.6s-25.6 11.637-25.6 25.6c0 76.8 162.91 123.346 367.71 123.346s367.709-46.546 367.709-123.346c2.327-13.963-6.982-23.272-20.946-23.272z" p-id="2180"></path><path d="M768 579.49c0-13.963-11.636-25.6-25.6-25.6s-25.6 11.637-25.6 25.6c0 13.965-72.145 37.237-158.255 37.237s-158.254-23.272-158.254-37.236c0-13.964-11.636-25.6-25.6-25.6s-25.6 11.636-25.6 25.6c0 55.854 93.09 86.109 207.127 86.109S768 633.018 768 579.49z" p-id="2181"></path><path d="M667.927 688.873c-6.982 4.654-16.29 6.982-25.6 11.636-25.6 9.31-58.182 13.964-95.418 13.964-37.236 0-72.145-4.655-95.418-13.964-11.636-4.654-18.618-6.982-23.273-11.636-2.327-2.328-2.327-2.328-2.327 0 0-13.964-11.636-25.6-25.6-25.6-13.964 0-25.6 11.636-25.6 25.6 0 48.872 76.8 74.472 172.218 74.472s172.218-25.6 172.218-74.472c0-13.964-11.636-25.6-25.6-25.6s-25.6 13.963-25.6 25.6z" p-id="2182"></path></svg>