<?xml version="1.0" standalone="no"?><!DOCTYPE svg PUBLIC "-//W3C//DTD SVG 1.1//EN" "http://www.w3.org/Graphics/SVG/1.1/DTD/svg11.dtd"><svg t="1589625048739" class="icon" viewBox="0 0 1024 1024" version="1.1" xmlns="http://www.w3.org/2000/svg" p-id="2143" xmlns:xlink="http://www.w3.org/1999/xlink" width="200" height="200"><defs><style type="text/css"></style></defs><path d="M510.896876 732.469274 210.977086 732.469274c-15.954367 0-29.006637-13.053294-29.006637-29.006637L181.970448 226.022757c0-15.954367 13.053294-29.006637 29.006637-29.006637L553.612747 197.016119c15.954367 0 29.006637 13.053294 29.006637 29.006637l0 130.875746 59.092863 0L641.712247 196.810435c0-31.907711-26.106588-58.014298-58.014298-58.014298L180.89086 138.796136c-31.907711 0-58.014298 26.106588-58.014298 58.014298l0 577.376986c0 31.907711 26.106588 58.014298 58.014298 58.014298l330.006016 0L510.896876 732.469274zM382.294916 813.385165c-16.954137 0-30.697139-13.744026-30.697139-30.697139s13.744026-30.697139 30.697139-30.697139c16.954137 0 30.698163 13.744026 30.698163 30.697139S399.24803 813.385165 382.294916 813.385165z" p-id="2144"></path><path d="M825.499064 365.217982 585.900104 365.217982c-31.907711 0-58.014298 26.106588-58.014298 58.014298l0 413.293931c0 31.907711 26.106588 58.014298 58.014298 58.014298l239.59896 0c31.907711 0 58.014298-26.106588 58.014298-58.014298L883.513362 423.232281C883.512339 391.32457 857.406774 365.217982 825.499064 365.217982zM831.240835 808.864198c0 15.954367-13.053294 29.006637-29.006637 29.006637L609.163947 837.870836c-15.954367 0-29.006637-13.053294-29.006637-29.006637L580.157309 449.606974c0-15.954367 13.053294-29.006637 29.006637-29.006637l193.069227 0c15.954367 0 29.006637 13.053294 29.006637 29.006637L831.239811 808.864198z" p-id="2145"></path></svg>