<?xml version="1.0" standalone="no"?><!DOCTYPE svg PUBLIC "-//W3C//DTD SVG 1.1//EN" "http://www.w3.org/Graphics/SVG/1.1/DTD/svg11.dtd"><svg t="1532941687300" class="icon" style="" viewBox="0 0 1024 1024" version="1.1" xmlns="http://www.w3.org/2000/svg" p-id="3493" xmlns:xlink="http://www.w3.org/1999/xlink" width="500" height="500"><defs><style type="text/css"></style></defs><path d="M723.073 281.704c0 0-178.855 8.608-242.328 11.459-39.23 1.791-60.568-31.497-25.961-65.899 26.593-26.369 36.277-33.813 31.736-83.052-5.206-56.384-61.988-74.712-108.593-74.188-48.749 0.576-102.112 26.206-117.829 72.695-10.337 30.487-10.036 61.222 16.701 80.798 14.588 10.697 46.874 26.472 10.658 55.333-19.544 15.589-216.333-2.903-216.333-2.903s-8.67 167.897-2.5 215.725c3.527 27.483 37.768 40.343 60.205 10.617 34.609-45.809 130.294-15.92 135.135 74.010 5.090 94.348-96.223 108.889-117.85 72.088-20.186-34.392-77.852-42.948-80.351 0.916-3.868 68.298 28.313 285.617 28.313 285.617s129.348 30.365 187.647 21.026c27.082-4.385 39.514-50.823 14.412-72.632-23.090-20.037-27.932-127.154 92.573-114.851 94.285 9.628 78.537 91.362 54.546 106.293-23.078 14.312-21.98 58.916 25.983 71.591 65.627 17.39 264.701-25.493 264.701-25.493s-26.303-160.339-17.501-212.298c9.404-55.632 73.623-22.064 81.646-11.439 51.934 68.751 159.633 31.169 159.633-84.236 0-168.071-153.797-139.498-168.27-99.124-15.997 44.459-68.936 33.063-74.688 5.745-13.521-63.809 8.316-237.801 8.316-237.801z" p-id="3494"></path></svg>