<?xml version="1.0" standalone="no"?><!DOCTYPE svg PUBLIC "-//W3C//DTD SVG 1.1//EN" "http://www.w3.org/Graphics/SVG/1.1/DTD/svg11.dtd"><svg t="1532936574995" class="icon" style="" viewBox="0 0 1024 1024" version="1.1" xmlns="http://www.w3.org/2000/svg" p-id="8876" xmlns:xlink="http://www.w3.org/1999/xlink" width="200" height="200"><defs><style type="text/css"></style></defs><path d="M942.08 0 81.92 0C36.675584 0 0 36.675584 0 81.92l0 860.16c0 45.244416 36.675584 81.92 81.92 81.92l860.16 0c45.244416 0 81.92-36.675584 81.92-81.92L1024 81.92C1024 36.675584 987.324416 0 942.08 0zM270.336 796.672 147.456 796.672l0-122.88 122.88 0L270.336 796.672zM270.336 573.44 147.456 573.44l0-122.88 122.88 0L270.336 573.44zM270.336 350.208 147.456 350.208l0-122.88 122.88 0L270.336 350.208zM874.496 776.192 342.016 776.192l0-81.92 532.48 0L874.496 776.192zM874.496 552.96 342.016 552.96l0-81.92 532.48 0L874.496 552.96zM874.496 329.728 342.016 329.728l0-81.92 532.48 0L874.496 329.728z" p-id="8877"></path></svg>