<?xml version="1.0" standalone="no"?><!DOCTYPE svg PUBLIC "-//W3C//DTD SVG 1.1//EN" "http://www.w3.org/Graphics/SVG/1.1/DTD/svg11.dtd"><svg t="1582813203836" class="icon" viewBox="0 0 1025 1024" version="1.1" xmlns="http://www.w3.org/2000/svg" p-id="1155" xmlns:xlink="http://www.w3.org/1999/xlink" width="200.1953125" height="200"><defs><style type="text/css"></style></defs><path d="M914.937486 644.239258 885.963356 644.239258C881.304972 657.395356 875.929912 670.321094 869.914965 682.91409L890.416977 703.416102C932.956733 745.955858 932.956733 815.191741 890.416977 857.731497L857.731497 890.391382C837.127103 910.995776 809.739896 922.334591 780.586597 922.334591 751.458895 922.334591 724.046092 910.995776 703.441698 890.391382L682.939686 869.889369C670.346689 875.929912 657.395356 881.279376 644.264854 885.912165L644.264854 914.91189C644.264854 975.061364 595.300622 1024 535.151149 1024L488.951234 1024C428.776164 1024 379.837528 975.061364 379.837528 914.91189L379.837528 885.912165C366.681431 881.279376 353.755693 875.929912 341.137101 869.889369L320.635089 890.391382C300.05629 910.995776 272.643487 922.334591 243.490189 922.334591 214.362487 922.334591 186.949684 910.995776 166.34529 890.391382L133.65981 857.731497C91.14565 815.166146 91.14565 745.955858 133.65981 703.416102L154.161822 682.91409C148.146874 670.321094 142.79741 657.395356 138.139026 644.239258L109.164896 644.239258C48.989827 644.239258 0.051191 595.275027 0.051191 535.125553L0.051191 488.900042C0.051191 428.750569 48.989827 379.811933 109.164896 379.811933L138.139026 379.811933C142.79741 366.63024 148.146874 353.730097 154.161822 341.111505L133.65981 320.635089C113.081011 300.030695 101.7166 272.617892 101.7166 243.464594 101.7166 214.336891 113.081011 186.924088 133.65981 166.319694L166.34529 133.65981C186.949684 113.055415 214.362487 101.691004 243.490189 101.691004 272.643487 101.691004 300.05629 113.055415 320.635089 133.65981L341.137101 154.161822C353.755693 148.146874 366.655835 142.771815 379.837528 138.11343L379.837528 109.139301C379.837528 48.989827 428.776164 0.025596 488.951234 0.025596L535.151149 0.025596C595.300622 0.025596 644.264854 48.989827 644.264854 109.139301L644.264854 138.11343C657.395356 142.771815 670.346689 148.121279 682.939686 154.161822L703.441698 133.65981C724.046092 113.055415 751.458895 101.691004 780.586597 101.691004 809.739896 101.691004 837.127103 113.055415 857.731497 133.65981L890.416977 166.319694C911.021371 186.924088 922.360187 214.336891 922.360187 243.464594 922.360187 272.617892 911.021371 300.030695 890.416977 320.635089L869.914965 341.111505C875.955508 353.730097 881.304972 366.655835 885.963356 379.811933L914.937486 379.811933C975.08696 379.811933 1024.025596 428.750569 1024.025596 488.900042L1024.025596 535.125553C1024.025596 595.275027 975.08696 644.239258 914.937486 644.239258ZM976.5715 488.900042C976.5715 454.934786 948.902742 427.266028 914.937486 427.266028L868.788762 427.266028C858.345789 427.266028 849.131402 420.432024 846.085535 410.449771 839.507486 388.821556 830.753818 367.705252 820.05489 347.663959 815.14055 338.449571 816.804259 327.110756 824.201365 319.71365L856.861249 287.079361C868.481616 275.433399 874.906091 259.948109 874.906091 243.464594 874.906091 227.006674 868.481616 211.521384 856.861249 199.875422L824.175769 167.215537C800.883845 143.949209 760.289349 143.949209 736.997425 167.215537L704.337541 199.849826C696.966031 207.272527 685.652811 208.961832 676.361637 203.996301 656.371535 193.322968 635.280826 184.5693 613.627015 177.991252 603.619167 174.97098 596.785163 165.730997 596.785163 155.288025L596.785163 109.139301C596.785163 75.148449 569.142 47.505287 535.151149 47.505287L488.951234 47.505287C454.934786 47.505287 427.291624 75.148449 427.291624 109.139301L427.291624 155.288025C427.291624 165.730997 420.45762 174.945385 410.475367 177.991252 388.770365 184.5693 367.679656 193.348564 347.71515 203.996301 338.500762 208.936236 327.136351 207.246932 319.739246 199.849826L287.079361 167.215537C263.787437 143.949209 223.192941 143.949209 199.901017 167.215537L167.241133 199.875422C155.595171 211.521384 149.170695 227.006674 149.170695 243.464594 149.170695 259.948109 155.595171 275.433399 167.241133 287.079361L199.875422 319.71365C207.272527 327.110756 208.961832 338.449571 204.021896 347.689554 193.348564 367.654061 184.594896 388.770365 178.016847 410.449771 174.97098 420.432024 165.756593 427.266028 155.31362 427.266028L109.164896 427.266028C75.174045 427.266028 47.530882 454.934786 47.530882 488.900042L47.530882 535.125553C47.530882 569.116405 75.174045 596.759567 109.164896 596.759567L155.31362 596.759567C165.756593 596.759567 174.97098 603.593571 178.016847 613.60142 184.620491 635.306421 193.348564 656.397131 204.021896 676.361637 208.961832 685.576024 207.272527 696.940435 199.875422 704.311945L167.241133 736.97183C143.206939 761.006024 143.206939 800.11598 167.241133 824.150174L199.901017 856.835654C223.192941 880.101982 263.787437 880.101982 287.079361 856.835654L319.739246 824.175769C324.295248 819.619767 330.386982 817.239383 336.529907 817.239383 340.34364 817.239383 344.182968 818.160822 347.71515 820.029295 367.730847 830.728223 388.847152 839.481891 410.449771 846.034344 420.45762 849.080211 427.291624 858.294598 427.291624 868.763166L427.291624 914.91189C427.291624 948.902742 454.934786 976.545904 488.951234 976.545904L535.151149 976.545904C569.142 976.545904 596.785163 948.902742 596.785163 914.91189L596.785163 868.763166C596.785163 858.294598 603.619167 849.080211 613.627015 846.034344 635.25523 839.481891 656.371535 830.728223 676.387232 820.029295 685.576024 815.089359 696.940435 816.778664 704.337541 824.175769L736.997425 856.835654C760.289349 880.101982 800.883845 880.101982 824.175769 856.835654L856.861249 824.150174C880.869848 800.11598 880.869848 761.006024 856.861249 736.97183L824.201365 704.311945C816.804259 696.940435 815.14055 685.576024 820.05489 676.361637 830.753818 656.371535 839.507486 635.25523 846.085535 613.60142 849.131402 603.593571 858.345789 596.759567 868.788762 596.759567L914.937486 596.759567C948.902742 596.759567 976.5715 569.116405 976.5715 535.125553L976.5715 488.900042ZM512.038393 687.470093C415.287325 687.470093 336.581098 608.763866 336.581098 512.012798 336.581098 415.287325 415.287325 336.581098 512.038393 336.581098 608.789462 336.581098 687.495688 415.287325 687.495688 512.012798 687.495688 608.763866 608.789462 687.470093 512.038393 687.470093ZM512.038393 384.035194C441.471542 384.035194 384.060789 441.445947 384.060789 512.012798 384.060789 582.579649 441.471542 639.990402 512.038393 639.990402 582.63084 639.990402 640.041593 582.579649 640.041593 512.012798 640.041593 441.445947 582.63084 384.035194 512.038393 384.035194Z" p-id="1156"></path></svg>