<?xml version="1.0" standalone="no"?><!DOCTYPE svg PUBLIC "-//W3C//DTD SVG 1.1//EN" "http://www.w3.org/Graphics/SVG/1.1/DTD/svg11.dtd"><svg t="1533026689705" class="icon" style="" viewBox="0 0 1024 1024" version="1.1" xmlns="http://www.w3.org/2000/svg" p-id="8566" xmlns:xlink="http://www.w3.org/1999/xlink" width="500" height="500"><defs><style type="text/css"></style></defs><path d="M784.739271 1020.556732c-131.196064 0-237.530426-106.333342-237.530426-237.530426 0-131.178725 106.334362-237.547765 237.530426-237.547765 131.197084 0 237.547765 106.36904 237.547765 237.547765C1022.287035 914.22339 915.919016 1020.556732 784.739271 1020.556732L784.739271 1020.556732 784.739271 1020.556732zM951.901984 791.824182c0-9.71275-7.899322-17.595753-17.595753-17.595753L811.115561 774.228429 811.115561 668.669211c0-9.730088-7.864645-17.595753-17.578414-17.595753L775.941394 651.073458c-9.731108 0-17.595753 7.865665-17.595753 17.595753l0 140.769084c0 9.713769 7.864645 17.596773 17.595753 17.596773l17.595753 0 140.769084 0c9.713769 0 17.595753-7.901362 17.595753-17.596773L951.901984 791.824182 951.901984 791.824182 951.901984 791.824182zM517.73606 633.460366 195.270327 633.460366c-29.174966 0-52.806637 23.631671-52.806637 52.76992l0 17.595753c0 29.174966 23.631671 52.806637 52.806637 52.806637l282.417343 0c-0.387572 5.842133-0.896514 11.648568-0.896514 17.578414 0 76.612716 32.8161 145.343449 84.918989 193.574701L142.46369 967.785792c-77.722395 0-140.751745-63.012011-140.751745-140.769084L1.711945 140.769084c0-77.757072 63.046688-140.751745 140.751745-140.751745l404.727816 0L547.191506 105.576558c0 77.756053 63.012011 140.786422 140.751745 140.786422l140.769084 0 0 279.267813c-27.555324-9.765786-57.081145-15.343758-87.979785-15.343758C646.786201 510.269697 564.505759 559.520874 517.73606 633.460366L517.73606 633.460366 517.73606 633.460366zM670.364836 439.884645c0-29.138249-23.630652-52.76992-52.788279-52.76992L195.270327 387.114725c-29.174966 0-52.806637 23.631671-52.806637 52.76992l0 17.595753c0 29.174966 23.631671 52.77196 52.806637 52.77196l422.306231 0c29.157627 0.017339 52.788279-23.579655 52.788279-52.752581L670.364836 439.884645 670.364836 439.884645 670.364836 439.884645zM793.554486 193.557362 635.189649 193.557362c-19.443858 0-35.208845-15.749688-35.208845-35.193546L599.980805 0l52.76992 0 175.960589 158.364836C828.728653 177.807674 812.981005 193.557362 793.554486 193.557362L793.554486 193.557362 793.554486 193.557362z" p-id="8567"></path></svg>