<?xml version="1.0" standalone="no"?><!DOCTYPE svg PUBLIC "-//W3C//DTD SVG 1.1//EN" "http://www.w3.org/Graphics/SVG/1.1/DTD/svg11.dtd"><svg t="1533027065212" class="icon" style="" viewBox="0 0 1024 1024" version="1.1" xmlns="http://www.w3.org/2000/svg" p-id="10957" xmlns:xlink="http://www.w3.org/1999/xlink" width="500" height="500"><defs><style type="text/css"></style></defs><path d="M881.435098 1011.356464H142.564902c-61.207359 0-110.833239-49.62588-110.833238-110.831433v-591.103381h960.534866v591.103381c0 61.205553-49.624074 110.831432-110.831432 110.831433zM290.335329 475.664283c-30.597358 0-55.411201 24.813843-55.411201 55.422038 0 30.597358 24.812037 55.411201 55.411201 55.411201 30.610001 0 55.422038-24.812037 55.422038-55.411201 0-30.608195-24.813843-55.422038-55.422038-55.422038z m0 221.666477c-30.597358 0-55.411201 24.810231-55.411201 55.411201 0 30.610001 24.812037 55.422038 55.411201 55.422038 30.610001 0 55.422038-24.810231 55.422038-55.422038 0-30.599164-24.813843-55.411201-55.422038-55.411201z m221.664671-221.666477c-30.610001 0-55.422038 24.813843-55.422038 55.422038 0 30.597358 24.812037 55.411201 55.422038 55.411201s55.423844-24.812037 55.423844-55.411201c0-30.608195-24.813843-55.422038-55.423844-55.422038z m0 221.666477c-30.610001 0-55.422038 24.810231-55.422038 55.411201 0 30.610001 24.812037 55.422038 55.422038 55.422038s55.423844-24.810231 55.423844-55.422038c0-30.599164-24.813843-55.411201-55.423844-55.411201z m221.666477-221.666477c-30.610001 0-55.42565 24.813843-55.42565 55.422038 0 30.597358 24.813843 55.411201 55.42565 55.411201 30.595551 0 55.411201-24.812037 55.411201-55.411201 0-30.608195-24.813843-55.422038-55.411201-55.422038z m0 221.666477c-30.610001 0-55.42565 24.810231-55.42565 55.411201 0 30.610001 24.813843 55.422038 55.42565 55.422038 30.595551 0 55.411201-24.810231 55.411201-55.422038 0-30.599164-24.813843-55.411201-55.411201-55.411201zM31.731664 180.127042c0-61.220002 49.62588-110.833239 110.833238-110.833239h55.411201v110.833239c0 20.397636 16.537745 36.935382 36.948025 36.935382h110.833239c20.397636 0 36.937188-16.537745 36.937188-36.935382V69.291997h36.948025v110.833239c0 20.397636 16.537745 36.935382 36.937188 36.935382h110.845882c20.397636 0 36.935382-16.537745 36.935382-36.935382V69.291997h36.946219v110.833239c0 20.397636 16.537745 36.935382 36.935382 36.935382h110.835045c20.408474 0 36.946219-16.537745 36.946219-36.935382V69.291997H881.435098c61.207359 0 110.831432 49.613236 110.831432 110.833239v92.35742H31.731664V180.127042z m720.396182 0h-36.935381c-20.397636 0-36.949832-16.550389-36.949832-36.949831V50.817985c0-20.41028 16.552195-36.948025 36.949832-36.948026h36.935381c20.412086 0 36.949832 16.537745 36.949832 36.948026v92.359226c0 20.399443-16.537745 36.949832-36.949832 36.949831z m-221.653833 0h-36.948026c-20.397636 0-36.948025-16.550389-36.948025-36.949831V50.817985c0-20.41028 16.550389-36.948025 36.948025-36.948026h36.948026c20.397636 0 36.949832 16.537745 36.949831 36.948026v92.359226c0 20.399443-16.552195 36.949832-36.949831 36.949831z m-221.664671 0h-36.937188c-20.41028 0-36.948025-16.550389-36.948026-36.949831V50.817985c0-20.41028 16.537745-36.948025 36.948026-36.948026h36.937188c20.397636 0 36.948025 16.537745 36.948025 36.948026v92.359226c0 20.399443-16.550389 36.949832-36.948025 36.949831z" fill="" p-id="10958"></path></svg>