<?xml version="1.0" standalone="no"?><!DOCTYPE svg PUBLIC "-//W3C//DTD SVG 1.1//EN" "http://www.w3.org/Graphics/SVG/1.1/DTD/svg11.dtd"><svg t="1584248831668" class="icon" viewBox="0 0 1024 1024" version="1.1" xmlns="http://www.w3.org/2000/svg" p-id="2818" xmlns:xlink="http://www.w3.org/1999/xlink" width="200" height="200"><defs><style type="text/css"></style></defs><path d="M102.4 0h819.2a40.96 40.96 0 0 1 40.96 40.96v942.08a40.96 40.96 0 0 1-40.96 40.96H102.4a40.96 40.96 0 0 1-40.96-40.96V40.96a40.96 40.96 0 0 1 40.96-40.96z m40.96 81.92v860.16h737.28V81.92H143.36z m254.60736 303.9232l-58.61376 57.22112L208.97792 309.6576l130.37568-133.44768L397.9264 233.472l-74.42432 76.1856 74.46528 76.1856z m245.02272 0l74.42432-76.1856-74.42432-76.22656 58.5728-57.26208 130.37568 133.44768-130.37568 133.44768-58.5728-57.22112z m-223.15008 26.29632L563.2 163.84l70.94272 40.96-143.36 248.29952-70.94272-40.96zM266.24 532.48h491.52v81.92H266.24v-81.92z m0 204.8h491.52v81.92H266.24v-81.92z" p-id="2819"></path></svg>