<?xml version="1.0" standalone="no"?><!DOCTYPE svg PUBLIC "-//W3C//DTD SVG 1.1//EN" "http://www.w3.org/Graphics/SVG/1.1/DTD/svg11.dtd"><svg t="1546331151266" class="icon" style="" viewBox="0 0 1024 1024" version="1.1" xmlns="http://www.w3.org/2000/svg" p-id="1277" xmlns:xlink="http://www.w3.org/1999/xlink" width="200" height="200"><defs><style type="text/css"></style></defs><path d="M634.2733 306.871c3.516 12.205 6.588 23.221 9.867 34.174 4.295 14.348 1.651 27.478-6.738 39.605-5.931 8.572-11.833 17.172-18.089 25.503-16.599 22.098-26.628 47.75-32.596 73.813-5.311 23.202-6.594 47.77-2.488 72.277 2.162 12.908 0.565 26.838-1.48 39.975-4.267 27.421-11.574 54.45-14.458 81.974-1.752 16.718 2.425 34.06 3.981 51.587-7.772 8.807-17.346 19.052-26.144 29.924-3.537 4.371-4.281 13.153-8.224 14.566-6.755 2.418-15.161 1.495-22.617 0.331-6.701-1.044-13.823-3.127-19.422-6.791-16.174-10.588-33.605-13.763-52.613-13.273-32.34 0.833-64.736 1.46-97.047 0.368-13.523-0.456-27.023-5.029-40.29-8.628-15.537-4.216-30.808-9.413-47.969-14.733-2.418-20.279-13.396-38.83-31.99-53.032-1.63-1.243-2.69-4.713-2.315-6.852 2.636-15.078 0.003-28.986-8.062-41.96-1.461-2.351-2.331-5.076-3.855-7.377-8.914-13.455-6.852-25.465 2.68-38.167 22.803-30.391 34.247-65.776 40.803-102.562 3.069-17.212 10.621-26.569 27.771-31.557 29.397-8.548 58.97-13.389 89.482-11.681 33.323 1.866 62.458-7.53 86.9-30.565 25.142-23.696 56.4-37.825 85.74-55.026 21.251-12.459 42.235-25.533 62.28-39.813 9.558-6.809 17.76-2.026 26.893-2.08zM359.5993 163.282c-9.771 19.282-6.1 33.711 6.857 46.374-14.851 12.012-23.395 27.431-30.599 44.381-6.059 14.257-14.942 27.364-23.142 40.632-1.805 2.921-5.742 5.024-9.147 6.365-9.597 3.778-14.714 10.674-14.436 20.715 0.417 15.083-4.232 28.445-14.3 39.138-18.689 19.848-21.909 45.901-29.325 70.147-4.697 15.354-13.619 24.338-28.287 30.567-18.343 7.784-36.998 11.308-56.692 11.908-20.492 0.626-41.013 1.632-61.418 3.548-27.262 2.563-53.319-3.605-79.25-10.018-14.402-3.564-18.433-10.835-16.579-23.95 13.54-95.8 50.71-181.287 112.03-256.29 4.07-4.979 8.114-6.665 14.779-6.899 24.957-0.881 49.849-3.458 74.802-4.529 21.474-0.92 43.045 0.124 64.487-1.152 18.629-1.109 37.141-4.221 55.699-6.504 10.61-1.306 21.205-2.719 34.521-4.433zM653.6253 303.31c17.305 11.943 34.358 26.465 47.056 45.449 6.251 9.35 14.003 14.074 25.832 14.345 19.623 0.449 29.935 11.529 30.127 30.959 0.124 12.735 4.915 23.605 14.043 31.412 17.321 14.812 35.735 28.352 54.751 43.247-7.282 16.612-5.494 34.283 6.633 49.032-3.702 13.23-7.165 25.388-10.497 37.58-4.5 16.452-13.104 28.437-30.899 33.121-5.554 1.463-10.752 7.116-14.421 12.092-3.821 5.18-5.625 11.853-8.265 17.893-5.084 11.635-13.409 18.146-26.67 17.866-3.139-0.065-8.826 1.495-8.998 2.855-0.471 3.703 0.103 9.112 2.55 11.327 8.826 7.989 4.96 12.922-3.483 15.696-10.675 3.507-21.761 7.397-32.794 7.819-23.599 0.905-27.732 3.788-29.291 27.2-0.86 12.885-10.979 18.804-23.784 17.142-17.286-2.245-34.881-2.123-54.812-3.142-10.224-15.7-10.724-36.62-4.36-56.195 13.55-41.673 11.629-83.605 6.579-125.855-4.506-37.693 3.114-72.609 22.751-104.818 4.416-7.24 10.022-15.077 17.096-19.119 17.886-10.218 23.464-26.049 23.393-44.596-0.082-20.537-1.637-41.069-2.537-61.31zM690.7083 769.577c19.848 5.758 38.016 2.554 56.746-3.666 27.279-9.06 55.187-16.4 83.132-23.239 16.533-4.045 30.609-10.521 40.758-24.686 6.345-8.852 14.415-14.88 26.554-12.898 2.176 0.357 5.713-2.107 7.244-4.25 6.039-8.461 11.527-17.313 16.688-25.203 8.065 5.707 16.184 11.451 25.446 18.01 2.396 21.878 5.217 46.275 7.56 70.719 0.295 3.069-1.37 6.717-3.068 9.529-53.322 88.32-126.495 154.991-219.394 200.021-17.188 8.332-35.095 6.336-48.301-7.609-7.366-7.78-11.854-18.382-17.146-27.985-4.978-9.038-9.3-18.438-13.921-27.673-1.546-3.09-4.287-6.086-4.501-9.256-1.374-20.354-11.731-36.696-22.561-52.951-2.479-3.722-4.33-7.857-6.956-12.7 36.646-7.723 65.053-24.43 71.72-66.163zM832.0243 110.348c19.966 19.607 41.64 39.2 61.024 60.837 6.815 7.606 9.628 19.952 11.447 30.614 3.594 21.086 5.359 42.492 7.632 63.792 3.771 35.323-0.475 68.636-19.141 100.278-16.508 27.979-29.74 57.886-44.342 86.979-2.768 5.518-8.92 6.358-12.769 0.868-4.557-6.505-9.051-13.284-12.108-20.559-7.16-17.04-17.582-31.329-31.898-43.028-9.59-7.837-15.439-17.89-19.751-29.843-6.774-18.778-21.456-31.097-41.229-34.171-14.733-2.29-26.185-8.702-36.005-18.936-14.316-14.924-28.306-30.166-42.957-45.832 20.984-21.514 41.578-42.566 62.096-63.696 8.948-9.216 18.444-18.022 26.447-28.011 17.192-21.456 38.256-37.015 64.126-46.425 8.418-3.059 16.299-7.584 27.428-12.867zM695.2693 990.366c-143.031 51.383-282.132 44.105-419.787-23.304 8.461-16.575-8.355-20.113-17.616-30.418 15.254-0.789 27.941-1.486 40.632-2.095 30.055-1.442 58.122-9.253 83.942-25.065 7.046-4.316 14.897-7.438 22.62-10.502 12.379-4.91 23.917-10.358 32.531-21.457 8.354-10.766 21.447-10.891 32.301-1.978 13.677 11.231 23.28 9.157 31.025-6.72 0.911-1.869 1.996-3.725 2.494-5.715 7.136-28.457 29.483-36.455 54.681-40.466 2.149-0.342 4.597 0.705 6.824 1.373 12.856 3.857 25.756 7.587 38.474 11.855 3.041 1.021 6.414 3.38 7.965 6.078 4.837 8.411 9.373 17.078 13.072 26.035 3.394 8.217 5.46 16.973 8.274 25.436 2.484 7.47 5.104 14.9 7.833 22.285 2.391 6.477 6.264 12.671 7.31 19.331 3.626 23.094 17.078 38.115 37.191 48.281 3.084 1.558 6.133 3.178 9.178 4.813 0.235 0.132 0.295 0.594 1.056 2.233zM458.1953 137.666c12.021-9.127 22.828-17.108 33.365-25.431 4.882-3.855 10.464-7.615 13.628-12.717 20.333-32.782 51.675-46.686 87.902-53.099 11.931-2.112 23.541-5.991 35.456-8.244 17.637-3.336 35.404-5.998 53.147-8.758 1.53-0.238 3.296 0.886 4.924 1.466 46.834 16.679 89.951 40.276 129.937 69.697 1.114 0.82 2.391 1.418 1.936 1.153-15.122 8.788-29.67 17.789-44.717 25.864-27.528 14.775-48.123 37.36-68.842 59.815-19.98 21.658-39.63 43.622-59.438 65.44-1.123 1.239-2.382 3.417-3.536 3.391-5.529-0.121-11.119-1.676-16.544-1.172-8.117 0.755-9.028-5.708-11.021-10.246-6.805-15.483-17.217-22.518-34.626-18.362-6.746 1.61-14.096 1.352-15.881-8.708-0.353-1.987-5.06-4.29-7.943-4.576-27.635-2.743-52.516-12.605-76.434-28.671 6.654-20.524-1.106-35.926-21.313-46.842zM605.3133 297.875c-23.486 14.71-42.017 34.265-68.02 43.658-15.108 5.458-28.848 15.119-42.568 23.882-22.216 14.188-43.34 30.165-66.078 43.416-10.426 6.077-23.378 8.703-35.547 10.755-33.854 5.707-67.873 10.466-101.885 15.179-7.059 0.98-14.37 0.143-23.359 0.143 10.534-31.761 21.293-61.173 38.272-87.977 16.701-26.36 32.037-53.723 50.541-78.751 12.209-16.514 28.88-29.76 43.808-44.208 1.381-1.337 4.648-0.572 6.948-1.15 15.324-3.854 30.604-7.885 45.946-11.663 3.021-0.744 6.782-1.848 9.305-0.743 31.776 13.91 63.631 27.689 94.863 42.755 7.525 3.632 14.387 10.91 18.79 18.18 5.869 9.688 9.851 20.017 23.227 21.217 1.61 0.144 3.004 2.68 5.757 5.307zM936.5033 222.675c13.972 25.83 28.766 50.09 40.633 75.705 36.629 79.059 51.728 162.299 45.511 249.332-1.046 14.656-9.789 24.922-18.498 35.215-11.837 13.989-24.155 27.573-36.353 41.255-2.03 2.279-4.497 4.169-6.219 5.739-6.198-3.367-12.058-5.726-16.844-9.454-2.904-2.266-4.878-6.426-6.021-10.121-5.936-19.198-10.645-38.815-17.358-57.729-7.748-21.821-20.045-40.445-43-49.653-2.121-0.852-4.409-4.3-4.521-6.642-0.62-13.096-5.103-24.346-16.032-35.109 8.811-13.992 17.588-28.331 26.788-42.393 5.89-9.002 12.3-17.674 18.667-26.354 8.374-11.417 10.709-24.18 11.362-38.17 0.548-11.802 3.23-23.917 7.327-35.025 4.028-10.917 5.927-21.071 2.657-32.356-6.421-22.158-4.123-43.091 11.901-64.24zM546.2053 802.179c-21.813 17.691-41.174 34.425-61.749 49.51-7.08 5.19-17.125 6.46-25.924 9.169-12.156 3.739-24.993 5.843-36.514 10.953-27.475 12.188-53.972 26.604-81.568 38.484-29.999 12.915-60.722 9.169-90.489-1.654-6.084-2.212-11.187-8.933-15.198-14.654-9.922-14.147-18.711-29.078-28.394-43.398-12.753-18.862-9.392-50 7.552-65.096 1.164-1.037 3.099-1.283 4.723-1.72 17.042-4.565 29.697-14.57 37.893-30.22 0.406-0.774 1.683-1.097 2.679-1.703 17.11 12.724 36.849 16.094 57.536 17.848 22.757 1.931 45.344 5.827 68.013 8.805 7.891 1.034 15.171 1.313 19.194-8.126 0.741-1.74 7.897-2.75 10.643-1.32 17.187 8.957 34.935 9.629 53.786 7.356 8.893-1.071 18.524 1.683 27.483 4a434.778 434.778 0 0 1 40.646 12.693c3.84 1.409 6.514 5.986 9.688 9.073zM614.1123 10.994c-8.333 2.304-17.258 3.94-25.532 7.217-24.145 9.566-48.036 19.773-72.017 29.761-11.477 4.78-19.896 12.659-27.895 22.432-14.993 18.319-32.013 34.988-48.265 52.273-6.21 6.604-13.769 8.769-23.028 9.365-16.904 1.087-32.238 7.57-45.873 18.055-3.17 2.438-7.994 3.896-12.03 3.842-19.422-0.263-38.841-1.128-58.251-1.955-3.771-0.16-7.967-0.188-11.185-1.816-23.377-11.829-46.456-7.665-69.208 1.264-15.553 6.102-30.871 8.544-46.353 0.904-5.453-2.69-10.25-6.704-16.612-10.96C212.5403 89.589 273.9723 52.52 343.3443 28.14c94.89-33.348 199.749-34.324 270.768-17.146zM0.1813 465.962c27.634 20.736 55.832 18.457 84.628 16.636 18.201-1.152 36.705 3.491 55.051 3.308 16.812-0.167 33.618-3.112 50.376-5.242 10.438-1.326 20.779-3.41 33.551-5.554-1.809 6.984-2.948 10.805-3.777 14.691-2.347 10.993-4.199 22.103-6.951 32.99-2.317 9.168-3.205 20.189-8.917 26.745-23.052 26.451-28.902 55.926-21.08 89.28 1.556 6.632 1.323 13.683 1.993 21.45-16.893 1.121-31.082 6.509-41.63 19.386-0.811 0.989-3.088 1.501-4.467 1.21-36.131-7.642-70.914-17.816-94.157-49.857-8.973-12.369-18.337-24.45-27.561-36.637C6.9813 580.818-0.3937 566.473 0.0223 548.63c0.614-26.293 0.159-52.61 0.159-82.668zM871.5333 517.66c6.258 6.349 15.154 13.33 21.451 22.162 16.234 22.769 28.736 47.563 34.165 75.291 0.761 3.885-0.796 8.378-1.872 12.433-2.348 8.842-6.94 17.542-7.114 26.369-0.161 8.292-2.818 13.32-8.408 18.679-20.713 19.853-45.155 30.617-73.808 32.014-16.136 0.786-30.506 6.422-43.197 16.306-14.884 11.592-31.516 15.997-50.514 16.05-17.897 0.051-35.768 3.771-53.702 5.188-4.06 0.317-8.342-2.229-13.272-3.677 11.869-27.981 32.717-41.404 57.32-50.087 14.063-4.961 28.572-8.653 42.682-13.502 3.227-1.105 5.627-4.61 8.406-7.014-2.643-2.414-4.939-5.463-7.992-7.122-8.992-4.887-10.913-9.787-5.41-18.284 2.589-3.996 6.301-7.385 9.936-10.559 11.782-10.283 23.996-20.082 35.601-30.555 11.408-10.296 16.96-23.044 16.422-38.918-0.275-8.051 1.951-16.414 4.307-24.26 2.083-6.938 5.244-12.609 15.384-11.591 5.451 0.546 11.519-5.006 19.615-8.923zM10.6313 614.558c1.649 2.582 3.567 5.031 4.904 7.762 15.699 32.089 41.571 51.878 74.852 63.593 12.999 4.574 25.252 11.369 37.547 17.729 2.377 1.23 4.631 5.062 4.802 7.823 1.851 30.099 17.114 51.162 42.724 65.945 3.25 1.878 6.604 6.491 6.862 10.057 0.671 9.248 0.75 18.82-0.919 27.897-4.594 24.98-0.129 47.49 15.122 67.96 2.251 3.019 2.875 7.246 4.251 10.914-4.288 0.767-8.698 2.583-12.839 2.099-12.632-1.477-23.216-6.627-32.737-15.95C79.8993 806.653 31.3043 718.478 10.6313 614.558zM965.9443 743.857c-1.844-17.96-3.829-35.906-5.376-53.89-0.236-2.732 0.946-6.043 2.515-8.394 6.375-9.551 8.831-20.182 5.554-30.802-2.906-9.412 1.846-13.611 8.091-17.833 12.854-8.687 25.809-17.229 38.321-25.563-8.757 47.251-24.379 93.434-49.105 136.482z" p-id="1278"></path></svg>